<svg width="21" height="21" viewBox="0 0 21 21" fill="none" xmlns="http://www.w3.org/2000/svg">
<path d="M13.2809 1.02456C11.7141 0.55809 10.0775 1.50386 9.63047 3.13864L9.39668 3.99455C9.24492 4.55088 8.97012 5.06443 8.59687 5.49238L6.49277 7.90603C6.12773 8.32542 6.15644 8.97591 6.5584 9.35679C6.96035 9.73767 7.58379 9.70771 7.94883 9.28831L10.0529 6.87466C10.6312 6.21134 11.0537 5.41963 11.2875 4.55944L11.5213 3.70354C11.6689 3.16004 12.2145 2.84336 12.7395 2.99742C13.2645 3.15148 13.5639 3.72066 13.4162 4.26844L13.1824 5.12434C12.9486 5.97597 12.5795 6.78052 12.0914 7.49948C11.8781 7.81188 11.8535 8.22271 12.0217 8.56508C12.1898 8.90744 12.5262 9.12141 12.8953 9.12141L18.375 9.12141C18.7359 9.12141 19.0312 9.42954 19.0312 9.80614C19.0312 10.0971 18.8549 10.3496 18.6047 10.4481C18.3012 10.5679 18.0715 10.8332 17.9936 11.1627C17.9156 11.4923 17.9977 11.8389 18.2109 12.0914C18.3135 12.2112 18.375 12.3696 18.375 12.545C18.375 12.8788 18.1453 13.157 17.8418 13.2169C17.5055 13.2854 17.2225 13.5293 17.1035 13.8674C16.9846 14.2055 17.0379 14.5821 17.2512 14.8645C17.3373 14.9801 17.3906 15.1256 17.3906 15.2882C17.3906 15.5749 17.2184 15.8274 16.9723 15.9259C16.5006 16.1184 16.2463 16.6491 16.3816 17.1584C16.398 17.214 16.4062 17.2782 16.4062 17.3424C16.4062 17.719 16.1109 18.0271 15.75 18.0271L11.751 18.0271C11.2342 18.0271 10.7256 17.8688 10.2949 17.5692L7.76426 15.8103C7.31309 15.4936 6.70195 15.622 6.39844 16.097C6.09492 16.5721 6.21797 17.2054 6.67324 17.5221L9.20391 19.281C9.95859 19.8074 10.8445 20.0855 11.751 20.0855L15.75 20.0855C17.1732 20.0855 18.3299 18.9044 18.375 17.4322C18.9738 16.9315 19.3594 16.1612 19.3594 15.2925C19.3594 15.0999 19.3389 14.9159 19.3061 14.7361C19.9377 14.2354 20.3437 13.4437 20.3437 12.5536C20.3437 12.2754 20.3027 12.0058 20.2289 11.7533C20.7047 11.2483 21 10.5636 21 9.80614C21 8.29547 19.827 7.06724 18.375 7.06724L14.5893 7.06724C14.782 6.62217 14.9461 6.15998 15.0732 5.68924L15.307 4.83333C15.7541 3.19856 14.8477 1.49103 13.2809 1.02456ZM1.3125 7.75197C0.586523 7.75197 0 8.36394 0 9.12141L0 18.7075C0 19.465 0.586523 20.077 1.3125 20.077L3.9375 20.077C4.66348 20.077 5.25 19.465 5.25 18.7075L5.25 9.12141C5.25 8.36394 4.66348 7.75197 3.9375 7.75197L1.3125 7.75197Z" fill="#313F55"/>
</svg>
