<svg viewBox="0 0 19 19" fill="none" xmlns="http://www.w3.org/2000/svg">
<path d="M15.4383 7.91719C15.4383 9.46448 14.8853 10.8938 13.9538 12.0534L18.6521 16.3245C19.116 16.7458 19.116 17.4301 18.6521 17.8515C18.1882 18.2729 17.4348 18.2729 16.9709 17.8515L12.2727 13.5805C10.996 14.43 9.42253 14.9289 7.71913 14.9289C3.45505 14.9289 0 11.7905 0 7.91719C0 4.04392 3.45505 0.905518 7.71913 0.905518C11.9832 0.905518 15.4383 4.04392 15.4383 7.91719ZM7.71913 12.7714C8.42091 12.7714 9.11582 12.6459 9.76419 12.4019C10.4126 12.158 11.0017 11.8004 11.4979 11.3497C11.9941 10.8989 12.3878 10.3638 12.6563 9.77482C12.9249 9.18588 13.0631 8.55466 13.0631 7.91719C13.0631 7.27972 12.9249 6.6485 12.6563 6.05955C12.3878 5.47061 11.9941 4.93548 11.4979 4.48473C11.0017 4.03397 10.4126 3.67641 9.76419 3.43246C9.11582 3.18851 8.42091 3.06296 7.71913 3.06296C7.01734 3.06296 6.32243 3.18851 5.67406 3.43246C5.0257 3.67641 4.43658 4.03397 3.94034 4.48473C3.4441 4.93548 3.05047 5.47061 2.7819 6.05955C2.51334 6.6485 2.37512 7.27972 2.37512 7.91719C2.37512 8.55466 2.51334 9.18588 2.7819 9.77482C3.05047 10.3638 3.4441 10.8989 3.94034 11.3497C4.43658 11.8004 5.0257 12.158 5.67406 12.4019C6.32243 12.6459 7.01734 12.7714 7.71913 12.7714Z" fill="#313F55"/>
</svg>
