<svg viewBox="0 0 23 24" fill="none" xmlns="http://www.w3.org/2000/svg">
<path d="M22.9385 12.0592C22.9385 18.2177 17.9521 23.2076 11.7979 23.2076C5.64356 23.2076 0.657228 18.2177 0.657228 12.0592C0.657228 5.90057 5.64356 0.910766 11.7979 0.910766C17.9521 0.910766 22.9385 5.90057 22.9385 12.0592ZM9.82129 6.84459L9.82129 12.0592L6.63633 12.0592C6.15567 12.0592 5.91309 12.6436 6.25449 12.9807L11.416 18.1189C11.6271 18.3301 11.9641 18.3301 12.1752 18.1189L17.3412 12.9807C17.6826 12.6391 17.44 12.0592 16.9594 12.0592L13.7744 12.0592L13.7744 6.84459C13.7744 6.5479 13.5318 6.30515 13.2354 6.30515L10.3604 6.30515C10.0639 6.30515 9.82129 6.5479 9.82129 6.84459Z" fill="#313F55"/>
</svg>
