<svg viewBox="0 0 29 19" fill="none" xmlns="http://www.w3.org/2000/svg">
<path d="M14.5 4.38398C12.0975 4.38398 10.15 6.63793 10.15 9.41873C10.15 12.1991 12.0975 14.4535 14.5 14.4535C16.9016 14.4535 18.85 12.2 18.85 9.41873C18.85 6.63793 16.9025 4.38398 14.5 4.38398ZM16.3125 11.9361C16.3125 12.1348 16.1503 12.2957 15.95 12.2957H13.05C12.8497 12.2957 12.6875 12.1348 12.6875 11.9361V11.2169C12.6875 11.0182 12.8497 10.8572 13.05 10.8572H13.775V8.36503L13.7537 8.37897C13.7141 8.40518 13.6697 8.42339 13.623 8.43256C13.5763 8.44174 13.5283 8.44169 13.4816 8.43242C13.4349 8.42315 13.3905 8.40484 13.351 8.37855C13.3115 8.35225 13.2776 8.31848 13.2512 8.27917L12.8488 7.68084C12.8224 7.64157 12.804 7.59751 12.7948 7.55119C12.7855 7.50487 12.7856 7.45719 12.7949 7.41089C12.8043 7.36459 12.8227 7.32057 12.8492 7.28135C12.8757 7.24213 12.9098 7.20847 12.9494 7.18231L13.644 6.72289C13.8226 6.60475 14.0325 6.54172 14.2472 6.54173H14.8625C15.0628 6.54173 15.225 6.70266 15.225 6.90136V10.8572H15.95C16.1503 10.8572 16.3125 11.0182 16.3125 11.2169V11.9361ZM27.55 0.78772H1.45C0.649328 0.78772 0 1.4319 0 2.22622V16.6112C0 17.4056 0.649328 18.0497 1.45 18.0497H27.55C28.3507 18.0497 29 17.4056 29 16.6112V2.22622C29 1.4319 28.3507 0.78772 27.55 0.78772ZM26.825 13.015C25.2232 13.015 23.925 14.3029 23.925 15.892H5.075C5.075 14.3029 3.7768 13.015 2.175 13.015V5.82248C3.7768 5.82248 5.075 4.53457 5.075 2.94547H23.925C23.925 4.53457 25.2232 5.82248 26.825 5.82248V13.015Z" fill="#313F55"/>
</svg>
