<svg viewBox="0 0 40 39" fill="none" xmlns="http://www.w3.org/2000/svg">
<path d="M0.320312 2.90977C0.109375 2.60508 0 2.23945 0 1.87383C0 0.837891 0.859375 0 1.92188 0H10.4609C11.3359 0 12.1562 0.449414 12.6016 1.18066L17.9531 9.87188C14.1875 10.3365 10.8203 12.0504 8.3125 14.5869L0.320312 2.90977ZM39.6719 2.90977L31.6875 14.5869C29.1797 12.0504 25.8125 10.3365 22.0469 9.87188L27.3984 1.18066C27.8516 0.449414 28.6641 0 29.5391 0H38.0781C39.1406 0 40 0.837891 40 1.87383C40 2.23945 39.8906 2.60508 39.6797 2.90977H39.6719ZM6.25 25.5938C6.25 22.0382 7.69866 18.6283 10.2773 16.1141C12.8559 13.5999 16.3533 12.1875 20 12.1875C23.6467 12.1875 27.1441 13.5999 29.7227 16.1141C32.3013 18.6283 33.75 22.0382 33.75 25.5938C33.75 29.1493 32.3013 32.5592 29.7227 35.0734C27.1441 37.5876 23.6467 39 20 39C16.3533 39 12.8559 37.5876 10.2773 35.0734C7.69866 32.5592 6.25 29.1493 6.25 25.5938ZM20.6562 18.365C20.3906 17.8318 19.6172 17.8318 19.3438 18.365L17.5938 21.8232C17.4844 22.0365 17.2812 22.1812 17.0469 22.2117L13.125 22.7678C12.5234 22.8516 12.2891 23.5676 12.7188 23.9865L15.5547 26.683C15.7266 26.8506 15.8047 27.0791 15.7656 27.3152L15.0938 31.1162C14.9922 31.6951 15.6172 32.1445 16.1562 31.8703L19.6562 30.0727C19.8672 29.966 20.125 29.966 20.3359 30.0727L23.8359 31.8703C24.375 32.1445 25 31.7027 24.8984 31.1162L24.2266 27.3152C24.1875 27.0867 24.2656 26.8506 24.4375 26.683L27.2734 23.9865C27.7109 23.5752 27.4688 22.8592 26.8672 22.7678L22.9531 22.2117C22.7188 22.1812 22.5078 22.0289 22.4062 21.8232L20.6562 18.365Z" fill="#D5B473"/>
</svg>
