<svg viewBox="0 0 22 14" fill="none" xmlns="http://www.w3.org/2000/svg">
<path d="M12.1 8.44112H11.55V5.4668C11.55 5.3174 11.4269 5.1964 11.275 5.1964H10.8082C10.6453 5.1964 10.4861 5.24372 10.3507 5.33261L9.82369 5.67804C9.79363 5.69772 9.76782 5.72302 9.74771 5.75251C9.72761 5.782 9.71362 5.8151 9.70653 5.84991C9.69944 5.88472 9.6994 5.92056 9.70641 5.95539C9.71342 5.99021 9.72734 6.02334 9.74738 6.05287L10.0526 6.50274C10.0726 6.53229 10.0984 6.55767 10.1284 6.57744C10.1584 6.5972 10.192 6.61096 10.2274 6.61793C10.2628 6.6249 10.2993 6.62494 10.3347 6.61805C10.3701 6.61116 10.4038 6.59747 10.4338 6.57777L10.45 6.56729V8.44112H9.9C9.74806 8.44112 9.625 8.56212 9.625 8.71151V9.2523C9.625 9.40169 9.74806 9.52269 9.9 9.52269H12.1C12.2519 9.52269 12.375 9.40169 12.375 9.2523V8.71151C12.375 8.56212 12.2519 8.44112 12.1 8.44112ZM20.9 0.870117H1.1C0.492594 0.870117 0 1.35446 0 1.95169V12.7674C0 13.3646 0.492594 13.849 1.1 13.849H20.9C21.5074 13.849 22 13.3646 22 12.7674V1.95169C22 1.35446 21.5074 0.870117 20.9 0.870117ZM1.65 12.2266V10.0635C2.86516 10.0635 3.85 11.0318 3.85 12.2266H1.65ZM1.65 4.65562V2.49247H3.85C3.85 3.68727 2.86516 4.65562 1.65 4.65562ZM11 11.145C9.17744 11.145 7.7 9.45002 7.7 7.35955C7.7 5.26873 9.17744 3.57405 11 3.57405C12.8226 3.57405 14.3 5.26873 14.3 7.35955C14.3 9.4507 12.8219 11.145 11 11.145ZM20.35 12.2266H18.15C18.15 11.0318 19.1348 10.0635 20.35 10.0635V12.2266ZM20.35 4.65562C19.1348 4.65562 18.15 3.68727 18.15 2.49247H20.35V4.65562Z" fill="#1A3F79"/>
</svg>
