<svg width="20" height="20" viewBox="0 0 20 20" fill="none" xmlns="http://www.w3.org/2000/svg">
<path d="M18.2083 0.670685H1.91667C1.40834 0.670685 0.920823 0.889091 0.561379 1.27786C0.201934 1.66662 0 2.1939 0 2.7437V17.2548C0 17.8046 0.201934 18.3319 0.561379 18.7206C0.920823 19.1094 1.40834 19.3278 1.91667 19.3278H17.25C17.7583 19.3278 18.2458 19.1094 18.6053 18.7206C18.9647 18.3319 19.1667 17.8046 19.1667 17.2548V5.85321C19.1667 5.57832 19.0657 5.31468 18.886 5.12029C18.7063 4.92591 18.4625 4.81671 18.2083 4.81671H2.875C2.62083 4.81671 2.37708 4.70751 2.19736 4.51312C2.01763 4.31874 1.91667 4.0551 1.91667 3.7802C1.91667 3.5053 2.01763 3.24167 2.19736 3.04728C2.37708 2.8529 2.62083 2.7437 2.875 2.7437H19.1667V1.70719C19.1667 1.43229 19.0657 1.16865 18.886 0.97427C18.7063 0.779888 18.4625 0.670685 18.2083 0.670685ZM15.8125 10.5175C16.0968 10.5175 16.3747 10.6087 16.6111 10.7795C16.8475 10.9504 17.0318 11.1932 17.1406 11.4773C17.2494 11.7614 17.2778 12.074 17.2224 12.3756C17.1669 12.6772 17.03 12.9542 16.829 13.1716C16.6279 13.3891 16.3718 13.5371 16.0929 13.5971C15.8141 13.6571 15.5251 13.6263 15.2624 13.5087C14.9997 13.391 14.7752 13.1917 14.6173 12.936C14.4593 12.6803 14.375 12.3798 14.375 12.0723C14.375 11.6599 14.5265 11.2644 14.796 10.9729C15.0656 10.6813 15.4313 10.5175 15.8125 10.5175Z" fill="#1A3F79"/>
</svg>
