<svg width="17" height="22" viewBox="0 0 17 22" fill="none" xmlns="http://www.w3.org/2000/svg">
<path d="M16.5446 6.91094H0.455357C0.203886 6.91094 0 6.68394 0 6.40396V4.883C0 3.76298 0.815469 2.85505 1.82143 2.85505H3.64286V0.65811C3.64286 0.378126 3.84674 0.151123 4.09821 0.151123H5.61607C5.86754 0.151123 6.07143 0.378126 6.07143 0.65811V2.85505H10.9286V0.65811C10.9286 0.378126 11.1325 0.151123 11.3839 0.151123H12.9018C13.1533 0.151123 13.3571 0.378126 13.3571 0.65811V2.85505H15.1786C16.1845 2.85505 17 3.76298 17 4.883V6.40396C17 6.68394 16.7961 6.91094 16.5446 6.91094ZM0.455357 8.26291H16.5446C16.7961 8.26291 17 8.48991 17 8.76989V19.7546C17 20.8746 16.1845 21.7826 15.1786 21.7826H1.82143C0.815469 21.7826 0 20.8746 0 19.7546V8.76989C0 8.48991 0.203886 8.26291 0.455357 8.26291ZM13.1027 12.3166L12.0338 11.1168C11.8567 10.918 11.5684 10.9167 11.3899 11.1139L7.36616 15.5578L5.62138 13.5995C5.44429 13.4007 5.15593 13.3994 4.9774 13.5966L3.89983 14.7868C3.72129 14.9839 3.72012 15.305 3.89725 15.5037L7.03166 19.0218C7.20876 19.2205 7.49708 19.2218 7.67561 19.0246L13.1002 13.0335C13.2787 12.8363 13.2799 12.5153 13.1027 12.3166Z" fill="#1A3F79"/>
</svg>
