<svg viewBox="0 0 30 41" fill="none" xmlns="http://www.w3.org/2000/svg">
<path d="M7.58758 29.0388C6.90868 28.3429 7.26258 28.5391 5.6251 28.0899C4.88214 27.8857 4.22902 27.4933 3.6384 27.0233L0.0939034 35.931C-0.249062 36.7934 0.391557 37.7303 1.29936 37.6951L5.41572 37.5341L8.24694 40.5994C8.87194 41.2753 9.9688 41.0647 10.3118 40.2023L14.3781 29.9829C13.5313 30.4666 12.5914 30.75 11.6196 30.75C10.0961 30.75 8.66491 30.1423 7.58758 29.0388ZM29.9061 35.931L26.3616 27.0233C25.771 27.4941 25.1179 27.8857 24.3749 28.0899C22.7288 28.5415 23.0898 28.3445 22.4124 29.0388C21.3351 30.1423 19.9031 30.75 18.3797 30.75C17.4078 30.75 16.468 30.4658 15.6211 29.9829L19.6875 40.2023C20.0304 41.0647 21.1281 41.2753 21.7523 40.5994L24.5843 37.5341L28.7006 37.6951C29.6084 37.7303 30.2491 36.7926 29.9061 35.931ZM20.5468 27.2267C21.7406 25.9815 21.8773 26.0888 23.5773 25.6139C24.6624 25.3104 25.5108 24.4256 25.8015 23.2933C26.3858 21.0191 26.2343 21.2938 27.8288 19.6298C28.6233 18.801 28.9335 17.5927 28.6428 16.4604C28.0592 14.1878 28.0585 14.5049 28.6428 12.2299C28.9335 11.0977 28.6233 9.8893 27.8288 9.0605C26.2343 7.39651 26.3858 7.67038 25.8015 5.397C25.5108 4.26472 24.6624 3.37988 23.5773 3.07639C21.3992 2.467 21.6617 2.62636 20.0656 0.961564C19.271 0.132772 18.1125 -0.191538 17.0273 0.111952C14.85 0.720534 15.1539 0.721334 12.9727 0.111952C11.8875 -0.191538 10.729 0.131971 9.93443 0.961564C8.33991 2.62555 8.60241 2.467 6.42353 3.07639C5.33838 3.37988 4.48995 4.26472 4.19933 5.397C3.61574 7.67038 3.76652 7.39651 2.17201 9.0605C1.37748 9.8893 1.06655 11.0977 1.35795 12.2299C1.94154 14.5009 1.94232 14.1838 1.35795 16.4596C1.06733 17.5919 1.37748 18.8002 2.17201 19.6298C3.76652 21.2938 3.61496 21.0191 4.19933 23.2933C4.48995 24.4256 5.33838 25.3104 6.42353 25.6139C8.17195 26.1024 8.30241 26.0255 9.45318 27.2267C10.4868 28.3053 12.0969 28.4983 13.3391 27.6927C13.8358 27.3695 14.412 27.1978 15.0004 27.1978C15.5888 27.1978 16.165 27.3695 16.6617 27.6927C17.9031 28.4983 19.5132 28.3053 20.5468 27.2267ZM7.62976 14.0909C7.62976 9.84445 10.9297 6.40196 15 6.40196C19.0703 6.40196 22.3702 9.84445 22.3702 14.0909C22.3702 18.3374 19.0703 21.7799 15 21.7799C10.9297 21.7799 7.62976 18.3374 7.62976 14.0909Z" fill="#D5B473"/>
</svg>
