<svg width="46" height="34" viewBox="0 0 46 34" fill="none" xmlns="http://www.w3.org/2000/svg">
<path d="M6.9 14.625C9.43719 14.625 11.5 12.4949 11.5 9.875C11.5 7.25508 9.43719 5.125 6.9 5.125C4.36281 5.125 2.3 7.25508 2.3 9.875C2.3 12.4949 4.36281 14.625 6.9 14.625ZM39.1 14.625C41.6372 14.625 43.7 12.4949 43.7 9.875C43.7 7.25508 41.6372 5.125 39.1 5.125C36.5628 5.125 34.5 7.25508 34.5 9.875C34.5 12.4949 36.5628 14.625 39.1 14.625ZM41.4 17H36.8C35.535 17 34.3922 17.527 33.5584 18.3805C36.455 20.0207 38.5106 22.982 38.9562 26.5H43.7C44.9722 26.5 46 25.4387 46 24.125V21.75C46 19.1301 43.9372 17 41.4 17ZM23 17C27.4491 17 31.05 13.2816 31.05 8.6875C31.05 4.09336 27.4491 0.375 23 0.375C18.5509 0.375 14.95 4.09336 14.95 8.6875C14.95 13.2816 18.5509 17 23 17ZM28.52 19.375H27.9234C26.4284 20.1172 24.7681 20.5625 23 20.5625C21.2319 20.5625 19.5787 20.1172 18.0766 19.375H17.48C12.9087 19.375 9.2 23.2047 9.2 27.925V30.0625C9.2 32.0293 10.7453 33.625 12.65 33.625H33.35C35.2547 33.625 36.8 32.0293 36.8 30.0625V27.925C36.8 23.2047 33.0912 19.375 28.52 19.375ZM12.4416 18.3805C11.6078 17.527 10.465 17 9.2 17H4.6C2.06281 17 0 19.1301 0 21.75V24.125C0 25.4387 1.02781 26.5 2.3 26.5H7.03656C7.48938 22.982 9.545 20.0207 12.4416 18.3805Z" fill="#D5B473"/>
</svg>
