<svg width="38" height="36" viewBox="0 0 38 36" fill="none" xmlns="http://www.w3.org/2000/svg">
<path d="M21.0071 1.26562C20.639 0.492188 19.8612 0 19.0071 0C18.1529 0 17.3821 0.492188 17.0071 1.26562L12.5418 10.568L2.56957 12.0586C1.73623 12.1852 1.04179 12.7758 0.784844 13.5844C0.5279 14.393 0.736233 15.2859 1.33346 15.8836L8.56957 23.1328L6.86123 33.3773C6.72234 34.2211 7.06957 35.0789 7.75707 35.5781C8.44457 36.0773 9.35429 36.1406 10.1043 35.7398L19.014 30.9234L27.9237 35.7398C28.6737 36.1406 29.5835 36.0844 30.271 35.5781C30.9585 35.0719 31.3057 34.2211 31.1668 33.3773L29.4515 23.1328L36.6876 15.8836C37.2848 15.2859 37.5001 14.393 37.2362 13.5844C36.9723 12.7758 36.2848 12.1852 35.4515 12.0586L25.4723 10.568L21.0071 1.26562Z" fill="#D5B473"/>
</svg>
